<mxfile host="app.diagrams.net" modified="2024-01-22T20:02:24.751Z" agent="Mozilla/5.0 (Windows NT 10.0; Win64; x64) AppleWebKit/537.36 (KHTML, like Gecko) Chrome/120.0.0.0 Safari/537.36" etag="vlojVLDrnaoAijc5E_fT" version="22.1.21" type="device">
  <diagram name="Page-1" id="2YBvvXClWsGukQMizWep">
    <mxGraphModel dx="1221" dy="699" grid="1" gridSize="10" guides="1" tooltips="1" connect="1" arrows="1" fold="1" page="1" pageScale="1" pageWidth="2339" pageHeight="3300" math="0" shadow="0">
      <root>
        <mxCell id="0" />
        <mxCell id="1" parent="0" />
        <mxCell id="t4uLiIC3QXgj09Sm1D-p-28" value=":Intern" style="shape=umlLifeline;perimeter=lifelinePerimeter;whiteSpace=wrap;container=1;dropTarget=0;collapsible=0;recursiveResize=0;outlineConnect=0;portConstraint=eastwest;newEdgeStyle={&quot;edgeStyle&quot;:&quot;elbowEdgeStyle&quot;,&quot;elbow&quot;:&quot;vertical&quot;,&quot;curved&quot;:0,&quot;rounded&quot;:0};size=65;" parent="1" vertex="1">
          <mxGeometry x="599" y="40" width="150" height="810" as="geometry" />
        </mxCell>
        <mxCell id="t4uLiIC3QXgj09Sm1D-p-29" value=":InternshipProgram" style="shape=umlLifeline;perimeter=lifelinePerimeter;whiteSpace=wrap;container=1;dropTarget=0;collapsible=0;recursiveResize=0;outlineConnect=0;portConstraint=eastwest;newEdgeStyle={&quot;edgeStyle&quot;:&quot;elbowEdgeStyle&quot;,&quot;elbow&quot;:&quot;vertical&quot;,&quot;curved&quot;:0,&quot;rounded&quot;:0};size=60;" parent="1" vertex="1">
          <mxGeometry x="1150" y="100" width="150" height="700" as="geometry" />
        </mxCell>
        <mxCell id="t4uLiIC3QXgj09Sm1D-p-31" value="applyForProgram(InternshipProram)" style="verticalAlign=bottom;endArrow=block;edgeStyle=elbowEdgeStyle;elbow=vertical;curved=0;rounded=0;" parent="1" edge="1">
          <mxGeometry relative="1" as="geometry">
            <Array as="points">
              <mxPoint x="406" y="180" />
            </Array>
            <mxPoint x="115.70000000000005" y="180" as="sourcePoint" />
            <mxPoint x="650" y="180" as="targetPoint" />
          </mxGeometry>
        </mxCell>
        <mxCell id="t4uLiIC3QXgj09Sm1D-p-33" value="Intern" style="shape=umlActor;verticalLabelPosition=bottom;verticalAlign=top;html=1;outlineConnect=0;" parent="1" vertex="1">
          <mxGeometry x="80" y="30" width="54" height="108" as="geometry" />
        </mxCell>
        <mxCell id="t4uLiIC3QXgj09Sm1D-p-34" value="" style="endArrow=none;dashed=1;html=1;rounded=0;" parent="1" edge="1">
          <mxGeometry width="50" height="50" relative="1" as="geometry">
            <mxPoint x="110" y="160" as="sourcePoint" />
            <mxPoint x="110" y="790" as="targetPoint" />
          </mxGeometry>
        </mxCell>
        <mxCell id="t4uLiIC3QXgj09Sm1D-p-35" value="" style="rounded=0;whiteSpace=wrap;html=1;fillColor=#B3B3B3;fillStyle=auto;" parent="1" vertex="1">
          <mxGeometry x="649" y="150" width="50" height="230" as="geometry" />
        </mxCell>
        <mxCell id="t4uLiIC3QXgj09Sm1D-p-36" value="" style="rounded=0;whiteSpace=wrap;html=1;fillColor=#B3B3B3;" parent="1" vertex="1">
          <mxGeometry x="1200" y="190" width="50" height="500" as="geometry" />
        </mxCell>
        <mxCell id="t4uLiIC3QXgj09Sm1D-p-37" value="applyIntern(intern)" style="verticalAlign=bottom;endArrow=block;edgeStyle=elbowEdgeStyle;elbow=vertical;curved=0;rounded=0;" parent="1" edge="1">
          <mxGeometry relative="1" as="geometry">
            <Array as="points">
              <mxPoint x="796.04" y="310" />
            </Array>
            <mxPoint x="698.9999999999998" y="310.0000000000001" as="sourcePoint" />
            <mxPoint x="1200" y="310.0000000000001" as="targetPoint" />
          </mxGeometry>
        </mxCell>
        <mxCell id="t4uLiIC3QXgj09Sm1D-p-41" value="" style="rounded=0;whiteSpace=wrap;html=1;fillColor=#B3B3B3;" parent="1" vertex="1">
          <mxGeometry x="1220" y="320" width="50" height="60" as="geometry" />
        </mxCell>
        <mxCell id="t4uLiIC3QXgj09Sm1D-p-42" value="applicationExists(intern)" style="verticalAlign=bottom;endArrow=block;edgeStyle=elbowEdgeStyle;elbow=horizontal;curved=0;rounded=0;entryX=1;entryY=0.25;entryDx=0;entryDy=0;" parent="1" source="t4uLiIC3QXgj09Sm1D-p-36" target="t4uLiIC3QXgj09Sm1D-p-41" edge="1">
          <mxGeometry x="0.2087" y="14" relative="1" as="geometry">
            <Array as="points">
              <mxPoint x="1335.5" y="290" />
            </Array>
            <mxPoint x="1240" y="290" as="sourcePoint" />
            <mxPoint x="1690.4199999999998" y="290" as="targetPoint" />
            <mxPoint as="offset" />
          </mxGeometry>
        </mxCell>
        <mxCell id="t4uLiIC3QXgj09Sm1D-p-43" value="answer" style="verticalAlign=bottom;endArrow=block;edgeStyle=elbowEdgeStyle;elbow=vertical;curved=0;rounded=0;exitX=1;exitY=0.75;exitDx=0;exitDy=0;" parent="1" source="t4uLiIC3QXgj09Sm1D-p-41" target="t4uLiIC3QXgj09Sm1D-p-36" edge="1">
          <mxGeometry x="0.002" relative="1" as="geometry">
            <Array as="points">
              <mxPoint x="1375.5" y="390" />
            </Array>
            <mxPoint x="1356.5" y="400" as="sourcePoint" />
            <mxPoint x="1240" y="390" as="targetPoint" />
            <mxPoint as="offset" />
          </mxGeometry>
        </mxCell>
        <mxCell id="t4uLiIC3QXgj09Sm1D-p-48" value="error message" style="verticalAlign=bottom;endArrow=block;edgeStyle=elbowEdgeStyle;elbow=vertical;curved=0;rounded=0;dashed=1;dashPattern=2 3;" parent="1" edge="1">
          <mxGeometry relative="1" as="geometry">
            <Array as="points">
              <mxPoint x="560" y="710" />
              <mxPoint x="269.8699999999999" y="739" />
            </Array>
            <mxPoint x="650" y="710" as="sourcePoint" />
            <mxPoint x="110" y="710" as="targetPoint" />
          </mxGeometry>
        </mxCell>
        <mxCell id="t4uLiIC3QXgj09Sm1D-p-50" value="InternshipApplication(internshipProgram, intern)" style="verticalAlign=bottom;endArrow=block;edgeStyle=elbowEdgeStyle;elbow=vertical;curved=0;rounded=0;" parent="1" edge="1">
          <mxGeometry relative="1" as="geometry">
            <Array as="points">
              <mxPoint x="1370" y="470" />
            </Array>
            <mxPoint x="1250" y="470" as="sourcePoint" />
            <mxPoint x="1620" y="470" as="targetPoint" />
          </mxGeometry>
        </mxCell>
        <mxCell id="t4uLiIC3QXgj09Sm1D-p-51" value="" style="rounded=0;whiteSpace=wrap;html=1;fillColor=#B3B3B3;" parent="1" vertex="1">
          <mxGeometry x="650" y="480" width="50" height="240" as="geometry" />
        </mxCell>
        <mxCell id="t4uLiIC3QXgj09Sm1D-p-55" value=":InternshipApplication" style="shape=umlLifeline;perimeter=lifelinePerimeter;whiteSpace=wrap;container=1;dropTarget=0;collapsible=0;recursiveResize=0;outlineConnect=0;portConstraint=eastwest;newEdgeStyle={&quot;edgeStyle&quot;:&quot;elbowEdgeStyle&quot;,&quot;elbow&quot;:&quot;vertical&quot;,&quot;curved&quot;:0,&quot;rounded&quot;:0};size=60;" parent="1" vertex="1">
          <mxGeometry x="1570" y="190" width="150" height="670" as="geometry" />
        </mxCell>
        <mxCell id="t4uLiIC3QXgj09Sm1D-p-56" value="" style="rounded=0;whiteSpace=wrap;html=1;fillColor=#B3B3B3;" parent="1" vertex="1">
          <mxGeometry x="1620" y="340" width="50" height="438.5" as="geometry" />
        </mxCell>
        <mxCell id="t4uLiIC3QXgj09Sm1D-p-68" value="Error (false)" style="verticalAlign=bottom;endArrow=block;edgeStyle=elbowEdgeStyle;elbow=vertical;curved=0;rounded=0;dashed=1;dashPattern=2 3;" parent="1" edge="1">
          <mxGeometry relative="1" as="geometry">
            <Array as="points">
              <mxPoint x="1169" y="680" />
              <mxPoint x="878.8699999999999" y="709" />
            </Array>
            <mxPoint x="1199" y="680" as="sourcePoint" />
            <mxPoint x="699" y="680" as="targetPoint" />
          </mxGeometry>
        </mxCell>
        <mxCell id="t4uLiIC3QXgj09Sm1D-p-69" value="Success (true)" style="verticalAlign=bottom;endArrow=block;edgeStyle=elbowEdgeStyle;elbow=vertical;curved=0;rounded=0;dashed=1;dashPattern=2 3;" parent="1" edge="1">
          <mxGeometry relative="1" as="geometry">
            <Array as="points">
              <mxPoint x="1160" y="580" />
              <mxPoint x="869.8699999999999" y="609" />
            </Array>
            <mxPoint x="1200" y="580.0000000000001" as="sourcePoint" />
            <mxPoint x="700" y="580.0000000000001" as="targetPoint" />
          </mxGeometry>
        </mxCell>
        <mxCell id="t4uLiIC3QXgj09Sm1D-p-70" value="success message" style="verticalAlign=bottom;endArrow=block;edgeStyle=elbowEdgeStyle;elbow=vertical;curved=0;rounded=0;dashed=1;dashPattern=2 3;" parent="1" edge="1">
          <mxGeometry relative="1" as="geometry">
            <Array as="points">
              <mxPoint x="568" y="610" />
              <mxPoint x="277.8699999999999" y="639" />
            </Array>
            <mxPoint x="649" y="610" as="sourcePoint" />
            <mxPoint x="109" y="610" as="targetPoint" />
          </mxGeometry>
        </mxCell>
        <mxCell id="t4uLiIC3QXgj09Sm1D-p-60" value="alt" style="shape=umlFrame;pointerEvents=0;dropTarget=0;strokeColor=#000000;height=20;width=30;strokeWidth=2;" parent="1" vertex="1">
          <mxGeometry x="590" y="430" width="1100" height="319" as="geometry" />
        </mxCell>
        <mxCell id="t4uLiIC3QXgj09Sm1D-p-61" value="[answer = false]" style="text;strokeColor=none;fillColor=none;align=center;verticalAlign=middle;whiteSpace=wrap;" parent="t4uLiIC3QXgj09Sm1D-p-60" vertex="1">
          <mxGeometry x="110" width="148.81" height="42.08" as="geometry" />
        </mxCell>
        <mxCell id="t4uLiIC3QXgj09Sm1D-p-62" value="[else]" style="shape=line;dashed=1;verticalAlign=top;labelPosition=center;verticalLabelPosition=bottom;align=left;strokeColor=#000000;fontColor=#000000;strokeWidth=1;fontSize=13;spacingLeft=130;" parent="t4uLiIC3QXgj09Sm1D-p-60" vertex="1">
          <mxGeometry y="199.99513374976252" width="1101.6393442622953" height="1.9245852187028656" as="geometry" />
        </mxCell>
        <mxCell id="t4uLiIC3QXgj09Sm1D-p-71" value="appllication" style="verticalAlign=bottom;endArrow=block;edgeStyle=elbowEdgeStyle;elbow=vertical;curved=0;rounded=0;exitX=0.011;exitY=0.476;exitDx=0;exitDy=0;exitPerimeter=0;" parent="1" edge="1">
          <mxGeometry x="0.002" relative="1" as="geometry">
            <Array as="points">
              <mxPoint x="1504.95" y="496.27" />
            </Array>
            <mxPoint x="1620.0000000000002" y="489.99599999999987" as="sourcePoint" />
            <mxPoint x="1249.45" y="496.27" as="targetPoint" />
            <mxPoint as="offset" />
          </mxGeometry>
        </mxCell>
        <mxCell id="t4uLiIC3QXgj09Sm1D-p-72" value="" style="rounded=0;whiteSpace=wrap;html=1;fillColor=#B3B3B3;" parent="1" vertex="1">
          <mxGeometry x="1220" y="529.25" width="50" height="60" as="geometry" />
        </mxCell>
        <mxCell id="t4uLiIC3QXgj09Sm1D-p-73" value="addInternshipApplication(application)" style="verticalAlign=bottom;endArrow=block;edgeStyle=elbowEdgeStyle;elbow=horizontal;curved=0;rounded=0;entryX=1;entryY=0.25;entryDx=0;entryDy=0;" parent="1" target="t4uLiIC3QXgj09Sm1D-p-72" edge="1">
          <mxGeometry x="0.1831" y="55" relative="1" as="geometry">
            <Array as="points">
              <mxPoint x="1345.5" y="480" />
            </Array>
            <mxPoint x="1250" y="520" as="sourcePoint" />
            <mxPoint x="1700.4199999999998" y="480" as="targetPoint" />
            <mxPoint as="offset" />
          </mxGeometry>
        </mxCell>
      </root>
    </mxGraphModel>
  </diagram>
</mxfile>
